<svg width="1000" height="1000" version="1.1" xmlns="http://www.w3.org/2000/svg" desc="Created with ImageTracerAndroid.java version 1.1.2" ><path desc="l 0 p 0" fill="rgb(0,0,0)" stroke="rgb(0,0,0)" stroke-width="1" opacity="0.0" d="M 0.5 0.0 L 1000.0 0.5 L 999.5 1000.0 L 0.0 999.5 L 0.5 0.0 Z" /><path desc="l 3 p 0" fill="rgb(230,231,230)" stroke="rgb(230,231,230)" stroke-width="1" opacity="0.996078431372549" d="M 471.5 32.0 L 521.0 32.5 L 540.5 34.0 L 551.5 35.0 L 560.5 36.0 L 584.5 40.0 L 613.5 46.0 L 646.5 56.0 L 672.0 65.5 L 700.5 78.0 Q 741.5 97.0 775.5 123.0 L 806.0 146.5 Q 807.0 152.0 803.5 153.0 L 792.5 161.0 L 779.0 151.5 L 778.5 150.0 Q 733.5 114.0 677.5 89.0 L 661.0 82.5 L 650.5 79.0 Q 649.0999755859375 76.4000015258789 644.5 77.0 L 615.5 67.0 L 589.5 61.0 L 556.5 55.0 L 524.5 52.0 L 506.5 51.0 L 474.5 51.0 Q 473.29998779296875 53.29999923706055 468.5 52.0 L 455.5 53.0 L 446.5 54.0 L 442.5 55.0 L 433.0 55.5 L 426.5 57.0 L 403.5 61.0 L 387.5 64.0 Q 384.29998779296875 67.30000305175781 377.5 67.0 L 362.5 72.0 L 341.5 79.0 L 325.0 85.5 Q 306.3999938964844 91.9000015258789 291.0 101.5 Q 258.79998779296875 117.30000305175781 231.5 138.0 L 215.0 150.5 L 209.5 156.0 Q 208.10000610351562 158.60000610351562 203.5 158.0 L 190.0 147.5 Q 189.5 143.5 192.5 143.0 L 215.5 125.0 L 231.0 114.5 L 231.5 113.0 L 268.0 90.5 L 290.5 79.0 L 310.5 70.0 L 329.5 62.0 L 339.5 58.0 L 344.5 57.0 L 363.0 50.5 L 384.5 45.0 L 412.5 39.0 L 435.0 35.5 L 455.5 33.0 L 457.5 34.0 L 462.5 33.0 L 468.5 33.0 L 471.5 32.0 Z" /><path desc="l 15 p 0" fill="rgb(176,176,176)" stroke="rgb(176,176,176)" stroke-width="1" opacity="0.7607843137254902" d="M 545.5 34.0 L 548.0 34.5 L 545.5 35.0 L 545.5 34.0 Z" /><path desc="l 14 p 0" fill="rgb(142,142,142)" stroke="rgb(142,142,142)" stroke-width="1" opacity="0.615686274509804" d="M 476.5 51.0 L 479.0 51.5 L 476.5 52.0 L 476.5 51.0 Z" /><path desc="l 13 p 0" fill="rgb(87,87,87)" stroke="rgb(87,87,87)" stroke-width="1" opacity="0.3764705882352941" d="M 479.5 51.0 L 482.0 51.5 L 479.5 52.0 L 479.5 51.0 Z" /><path desc="l 9 p 0" fill="rgb(49,49,49)" stroke="rgb(49,49,49)" stroke-width="1" opacity="0.21176470588235294" d="M 482.5 51.0 L 487.0 51.5 L 482.5 52.0 L 482.5 51.0 Z" /><path desc="l 9 p 1" fill="rgb(49,49,49)" stroke="rgb(49,49,49)" stroke-width="1" opacity="0.21176470588235294" d="M 505.5 51.0 L 509.0 51.5 L 505.5 52.0 L 505.5 51.0 Z" /><path desc="l 13 p 1" fill="rgb(87,87,87)" stroke="rgb(87,87,87)" stroke-width="1" opacity="0.3764705882352941" d="M 509.5 51.0 L 512.0 51.5 L 509.5 52.0 L 509.5 51.0 Z" /><path desc="l 14 p 1" fill="rgb(142,142,142)" stroke="rgb(142,142,142)" stroke-width="1" opacity="0.615686274509804" d="M 512.5 51.0 L 516.0 51.5 L 512.5 52.0 L 512.5 51.0 Z" /><path desc="l 13 p 2" fill="rgb(87,87,87)" stroke="rgb(87,87,87)" stroke-width="1" opacity="0.3764705882352941" d="M 464.5 52.0 L 467.0 52.5 L 464.5 53.0 L 464.5 52.0 Z" /><path desc="l 9 p 2" fill="rgb(49,49,49)" stroke="rgb(49,49,49)" stroke-width="1" opacity="0.21176470588235294" d="M 554.5 55.0 L 557.0 55.5 L 554.5 56.0 L 554.5 55.0 Z" /><path desc="l 3 p 1" fill="rgb(230,231,230)" stroke="rgb(230,231,230)" stroke-width="1" opacity="0.996078431372549" d="M 474.5 93.0 L 479.5 94.0 L 482.5 93.0 L 489.5 93.0 L 516.5 93.0 Q 517.7999877929688 95.30000305175781 522.5 94.0 L 546.5 96.0 L 566.5 99.0 L 581.5 102.0 L 621.5 112.0 L 641.5 119.0 L 675.5 134.0 Q 722.2999877929688 155.6999969482422 759.0 187.5 Q 759.7999877929688 192.3000030517578 756.5 193.0 L 750.5 197.0 Q 748.7999877929688 199.8000030517578 743.5 199.0 Q 704.2000122070312 165.8000030517578 653.5 144.0 L 628.5 134.0 L 608.0 127.5 L 587.5 122.0 L 558.5 116.0 L 543.5 114.0 L 532.0 112.5 L 517.0 111.5 L 477.5 111.0 L 474.5 112.0 L 465.5 112.0 L 439.0 115.5 L 424.5 118.0 L 385.5 127.0 L 362.5 135.0 Q 338.29998779296875 143.3000030517578 317.5 155.0 L 290.0 171.5 Q 278.5 176.5 270.5 185.0 L 251.5 198.0 L 238.0 187.5 L 243.5 181.0 L 264.0 166.5 L 264.5 165.0 L 292.5 148.0 L 307.0 139.5 L 340.5 124.0 L 381.5 109.0 L 390.5 107.0 L 395.5 105.0 L 406.5 103.0 L 419.5 100.0 L 432.5 98.0 L 458.5 95.0 L 468.5 94.0 Q 473.29998779296875 95.30000305175781 474.5 93.0 Z" /><path desc="l 15 p 1" fill="rgb(176,176,176)" stroke="rgb(176,176,176)" stroke-width="1" opacity="0.7607843137254902" d="M 517.5 93.0 L 521.0 93.5 L 517.5 94.0 L 517.5 93.0 Z" /><path desc="l 14 p 2" fill="rgb(142,142,142)" stroke="rgb(142,142,142)" stroke-width="1" opacity="0.615686274509804" d="M 530.5 94.0 L 533.0 94.5 L 530.5 95.0 L 530.5 94.0 Z" /><path desc="l 15 p 2" fill="rgb(176,176,176)" stroke="rgb(176,176,176)" stroke-width="1" opacity="0.7607843137254902" d="M 477.5 111.0 L 480.0 111.5 L 477.5 112.0 L 477.5 111.0 Z" /><path desc="l 14 p 3" fill="rgb(142,142,142)" stroke="rgb(142,142,142)" stroke-width="1" opacity="0.615686274509804" d="M 501.5 111.0 L 505.0 111.5 L 501.5 112.0 L 501.5 111.0 Z" /><path desc="l 15 p 3" fill="rgb(176,176,176)" stroke="rgb(176,176,176)" stroke-width="1" opacity="0.7607843137254902" d="M 505.5 111.0 L 517.0 111.5 L 505.5 112.0 L 505.5 111.0 Z" /><path desc="l 15 p 4" fill="rgb(176,176,176)" stroke="rgb(176,176,176)" stroke-width="1" opacity="0.7607843137254902" d="M 528.5 112.0 L 532.0 112.5 L 528.5 113.0 L 528.5 112.0 Z" /><path desc="l 9 p 3" fill="rgb(49,49,49)" stroke="rgb(49,49,49)" stroke-width="1" opacity="0.21176470588235294" d="M 761.5 112.0 L 762.5 114.0 L 761.5 112.0 Z" /><path desc="l 14 p 4" fill="rgb(142,142,142)" stroke="rgb(142,142,142)" stroke-width="1" opacity="0.615686274509804" d="M 765.5 115.0 L 766.5 117.0 L 765.5 115.0 Z" /><path desc="l 13 p 3" fill="rgb(87,87,87)" stroke="rgb(87,87,87)" stroke-width="1" opacity="0.3764705882352941" d="M 201.5 135.0 L 200.5 137.0 L 201.5 135.0 Z" /><path desc="l 9 p 4" fill="rgb(49,49,49)" stroke="rgb(49,49,49)" stroke-width="1" opacity="0.21176470588235294" d="M 758.5 135.0 L 759.5 137.0 L 758.5 135.0 Z" /><path desc="l 15 p 5" fill="rgb(176,176,176)" stroke="rgb(176,176,176)" stroke-width="1" opacity="0.7607843137254902" d="M 199.5 137.0 L 198.5 139.0 L 199.5 137.0 Z" /><path desc="l 14 p 5" fill="rgb(142,142,142)" stroke="rgb(142,142,142)" stroke-width="1" opacity="0.615686274509804" d="M 219.5 147.0 L 218.5 149.0 L 219.5 147.0 Z" /><path desc="l 15 p 6" fill="rgb(176,176,176)" stroke="rgb(176,176,176)" stroke-width="1" opacity="0.7607843137254902" d="M 215.5 150.0 L 214.5 152.0 L 215.5 150.0 Z" /><path desc="l 9 p 5" fill="rgb(49,49,49)" stroke="rgb(49,49,49)" stroke-width="1" opacity="0.21176470588235294" d="M 482.5 153.0 L 493.0 153.5 L 482.5 154.0 L 482.5 153.0 Z" /><path desc="l 3 p 2" fill="rgb(230,231,230)" stroke="rgb(230,231,230)" stroke-width="1" opacity="0.996078431372549" d="M 471.5 154.0 L 510.5 154.0 L 532.5 155.0 L 541.0 156.5 L 561.5 159.0 Q 564.4000244140625 161.60000610351562 570.5 161.0 L 597.5 168.0 Q 615.2999877929688 172.3000030517578 630.0 179.5 Q 676.5 197.5 712.0 226.5 L 713.0 228.5 L 711.5 231.0 L 709.0 232.5 L 708.5 234.0 L 704.0 237.5 L 700.5 239.0 Q 683.2999877929688 225.3000030517578 663.0 214.5 L 628.5 197.0 L 603.5 188.0 L 572.5 179.0 L 552.5 175.0 L 527.5 172.0 L 509.5 171.0 L 476.5 171.0 L 474.5 171.0 L 450.5 174.0 L 439.0 175.5 L 424.5 179.0 L 412.5 181.0 L 406.0 183.5 L 396.5 186.0 L 377.5 193.0 Q 356.5 200.0 339.5 211.0 Q 322.5 218.5 309.0 229.5 L 301.5 235.0 Q 300.1000061035156 237.60000610351562 295.5 237.0 L 291.0 233.5 L 289.5 231.0 L 288.0 230.5 L 287.5 229.0 L 286.0 228.5 L 286.5 224.0 L 289.0 222.5 L 289.5 221.0 Q 294.0 221.5 294.5 218.0 L 309.5 208.0 L 329.5 196.0 L 350.5 186.0 L 363.5 180.0 L 369.5 178.0 L 392.5 169.0 L 422.5 161.0 L 439.0 158.5 L 455.5 156.0 L 460.5 155.0 L 467.5 155.0 L 471.5 154.0 Z" /><path desc="l 14 p 6" fill="rgb(142,142,142)" stroke="rgb(142,142,142)" stroke-width="1" opacity="0.615686274509804" d="M 738.5 171.0 L 739.5 173.0 L 738.5 171.0 Z" /><path desc="l 9 p 6" fill="rgb(49,49,49)" stroke="rgb(49,49,49)" stroke-width="1" opacity="0.21176470588235294" d="M 254.5 172.0 L 253.5 174.0 L 254.5 172.0 Z" /><path desc="l 15 p 7" fill="rgb(176,176,176)" stroke="rgb(176,176,176)" stroke-width="1" opacity="0.7607843137254902" d="M 281.5 176.0 L 280.5 178.0 L 281.5 176.0 Z" /><path desc="l 13 p 4" fill="rgb(87,87,87)" stroke="rgb(87,87,87)" stroke-width="1" opacity="0.3764705882352941" d="M 749.5 179.0 L 750.5 181.0 L 749.5 179.0 Z" /><path desc="l 9 p 7" fill="rgb(49,49,49)" stroke="rgb(49,49,49)" stroke-width="1" opacity="0.21176470588235294" d="M 721.5 182.0 L 722.5 184.0 L 721.5 182.0 Z" /><path desc="l 15 p 8" fill="rgb(176,176,176)" stroke="rgb(176,176,176)" stroke-width="1" opacity="0.7607843137254902" d="M 731.5 189.0 L 732.5 191.0 L 731.5 189.0 Z" /><path desc="l 3 p 3" fill="rgb(230,231,230)" stroke="rgb(230,231,230)" stroke-width="1" opacity="0.996078431372549" d="M 481.5 212.0 L 505.5 212.0 L 520.5 213.0 L 538.5 215.0 L 556.5 218.0 L 577.5 223.0 L 602.5 232.0 Q 639.5999755859375 245.89999389648438 668.0 268.5 Q 669.0 275.0 664.5 276.0 L 655.5 283.0 Q 627.2999877929688 261.70001220703125 591.5 248.0 L 574.0 242.5 L 562.5 239.0 L 556.5 238.0 L 544.5 235.0 L 530.5 233.0 L 517.0 231.5 L 481.5 231.0 L 476.5 232.0 L 467.5 233.0 L 456.5 235.0 L 443.5 237.0 L 434.5 239.0 L 415.5 245.0 L 403.5 249.0 L 391.5 254.0 L 380.0 259.5 L 355.0 274.5 L 347.0 279.5 L 341.5 281.0 L 330.0 270.5 L 331.0 267.5 L 334.5 264.0 L 358.0 249.5 L 369.5 243.0 L 390.0 233.5 L 418.0 223.5 L 435.5 219.0 L 455.5 215.0 L 474.5 213.0 Q 480.0 214.5 481.5 212.0 Z" /><path desc="l 14 p 7" fill="rgb(142,142,142)" stroke="rgb(142,142,142)" stroke-width="1" opacity="0.615686274509804" d="M 697.5 215.0 L 698.5 217.0 L 697.5 215.0 Z" /><path desc="l 15 p 9" fill="rgb(176,176,176)" stroke="rgb(176,176,176)" stroke-width="1" opacity="0.7607843137254902" d="M 668.5 217.0 L 669.5 219.0 L 668.5 217.0 Z" /><path desc="l 9 p 8" fill="rgb(49,49,49)" stroke="rgb(49,49,49)" stroke-width="1" opacity="0.21176470588235294" d="M 484.5 231.0 L 488.0 231.5 L 484.5 232.0 L 484.5 231.0 Z" /><path desc="l 9 p 9" fill="rgb(49,49,49)" stroke="rgb(49,49,49)" stroke-width="1" opacity="0.21176470588235294" d="M 509.5 231.0 L 512.0 231.5 L 509.5 232.0 L 509.5 231.0 Z" /><path desc="l 14 p 8" fill="rgb(142,142,142)" stroke="rgb(142,142,142)" stroke-width="1" opacity="0.615686274509804" d="M 710.5 231.0 L 709.5 233.0 L 710.5 231.0 Z" /><path desc="l 9 p 10" fill="rgb(49,49,49)" stroke="rgb(49,49,49)" stroke-width="1" opacity="0.21176470588235294" d="M 522.5 232.0 L 525.0 232.5 L 522.5 233.0 L 522.5 232.0 Z" /><path desc="l 14 p 9" fill="rgb(142,142,142)" stroke="rgb(142,142,142)" stroke-width="1" opacity="0.615686274509804" d="M 292.5 234.0 L 294.5 237.0 L 292.5 234.0 Z" /><path desc="l 14 p 10" fill="rgb(142,142,142)" stroke="rgb(142,142,142)" stroke-width="1" opacity="0.615686274509804" d="M 707.5 234.0 L 703.5 239.0 L 707.5 234.0 Z" /><path desc="l 13 p 5" fill="rgb(87,87,87)" stroke="rgb(87,87,87)" stroke-width="1" opacity="0.3764705882352941" d="M 331.5 266.0 L 330.5 268.0 L 331.5 266.0 Z" /><path desc="l 15 p 10" fill="rgb(176,176,176)" stroke="rgb(176,176,176)" stroke-width="1" opacity="0.7607843137254902" d="M 336.5 276.0 L 340.5 281.0 L 336.5 276.0 Z" /><path desc="l 15 p 11" fill="rgb(176,176,176)" stroke="rgb(176,176,176)" stroke-width="1" opacity="0.7607843137254902" d="M 663.5 276.0 L 659.5 281.0 L 663.5 276.0 Z" /><path desc="l 15 p 12" fill="rgb(176,176,176)" stroke="rgb(176,176,176)" stroke-width="1" opacity="0.7607843137254902" d="M 488.5 277.0 L 491.0 277.5 L 488.5 278.0 L 488.5 277.0 Z" /><path desc="l 3 p 4" fill="rgb(230,231,230)" stroke="rgb(230,231,230)" stroke-width="1" opacity="0.996078431372549" d="M 491.5 277.0 Q 498.20001220703125 279.29998779296875 508.5 278.0 L 520.0 278.5 L 532.5 280.0 Q 586.2999877929688 288.20001220703125 622.0 314.5 L 621.5 318.0 L 610.5 327.0 L 586.5 314.0 L 573.0 308.5 Q 558.2999877929688 301.70001220703125 539.5 299.0 L 525.0 296.5 L 513.0 295.5 L 482.5 295.0 L 477.5 296.0 L 462.5 298.0 L 452.5 300.0 L 438.5 304.0 Q 410.5 311.5 389.5 326.0 L 384.0 322.5 L 377.0 315.5 Q 376.5 311.5 379.5 311.0 Q 398.0 299.0 420.5 291.0 Q 444.20001220703125 281.20001220703125 475.5 279.0 Q 478.70001220703125 276.70001220703125 485.5 278.0 Q 490.29998779296875 279.29998779296875 491.5 277.0 Z" /><path desc="l 15 p 13" fill="rgb(176,176,176)" stroke="rgb(176,176,176)" stroke-width="1" opacity="0.7607843137254902" d="M 495.5 277.0 L 499.0 277.5 L 495.5 278.0 L 495.5 277.0 Z" /><path desc="l 13 p 6" fill="rgb(87,87,87)" stroke="rgb(87,87,87)" stroke-width="1" opacity="0.3764705882352941" d="M 501.5 277.0 L 504.0 277.5 L 501.5 278.0 L 501.5 277.0 Z" /><path desc="l 9 p 11" fill="rgb(49,49,49)" stroke="rgb(49,49,49)" stroke-width="1" opacity="0.21176470588235294" d="M 504.5 277.0 L 510.0 277.5 L 504.5 278.0 L 504.5 277.0 Z" /><path desc="l 9 p 12" fill="rgb(49,49,49)" stroke="rgb(49,49,49)" stroke-width="1" opacity="0.21176470588235294" d="M 471.5 278.0 L 474.0 278.5 L 471.5 279.0 L 471.5 278.0 Z" /><path desc="l 9 p 13" fill="rgb(49,49,49)" stroke="rgb(49,49,49)" stroke-width="1" opacity="0.21176470588235294" d="M 484.5 295.0 L 488.0 295.5 L 484.5 296.0 L 484.5 295.0 Z" /><path desc="l 13 p 7" fill="rgb(87,87,87)" stroke="rgb(87,87,87)" stroke-width="1" opacity="0.3764705882352941" d="M 383.5 308.0 L 382.5 310.0 L 383.5 308.0 Z" /><path desc="l 15 p 14" fill="rgb(176,176,176)" stroke="rgb(176,176,176)" stroke-width="1" opacity="0.7607843137254902" d="M 378.5 317.0 L 379.5 319.0 L 378.5 317.0 Z" /><path desc="l 3 p 5" fill="rgb(230,231,230)" stroke="rgb(230,231,230)" stroke-width="1" opacity="0.996078431372549" d="M 488.5 337.0 L 516.5 338.0 L 536.0 341.5 Q 554.4000244140625 345.1000061035156 568.0 353.5 Q 568.7999877929688 358.29998779296875 565.5 359.0 L 557.5 363.0 Q 556.0 366.5 549.5 365.0 L 535.5 360.0 L 513.5 356.0 L 491.5 355.0 L 488.5 356.0 L 482.5 356.0 L 459.5 361.0 L 451.5 364.0 L 444.5 365.0 L 431.0 355.5 L 432.5 352.0 Q 442.8999938964844 345.8999938964844 456.5 343.0 Q 465.5 339.5 477.5 339.0 L 488.5 337.0 Z" /><path desc="l 15 p 15" fill="rgb(176,176,176)" stroke="rgb(176,176,176)" stroke-width="1" opacity="0.7607843137254902" d="M 499.5 337.0 L 509.0 337.5 L 499.5 338.0 L 499.5 337.0 Z" /><path desc="l 14 p 11" fill="rgb(142,142,142)" stroke="rgb(142,142,142)" stroke-width="1" opacity="0.615686274509804" d="M 509.5 337.0 L 512.0 337.5 L 509.5 338.0 L 509.5 337.0 Z" /><path desc="l 13 p 8" fill="rgb(87,87,87)" stroke="rgb(87,87,87)" stroke-width="1" opacity="0.3764705882352941" d="M 493.5 355.0 L 496.0 355.5 L 493.5 356.0 L 493.5 355.0 Z" /><path desc="l 15 p 16" fill="rgb(176,176,176)" stroke="rgb(176,176,176)" stroke-width="1" opacity="0.7607843137254902" d="M 498.5 355.0 L 502.0 355.5 L 498.5 356.0 L 498.5 355.0 Z" /><path desc="l 13 p 9" fill="rgb(87,87,87)" stroke="rgb(87,87,87)" stroke-width="1" opacity="0.3764705882352941" d="M 551.5 365.0 L 554.0 365.5 L 551.5 366.0 L 551.5 365.0 Z" /><path desc="l 3 p 6" fill="rgb(230,231,230)" stroke="rgb(230,231,230)" stroke-width="1" opacity="0.996078431372549" d="M 402.5 373.0 L 415.5 373.0 Q 420.79998779296875 371.79998779296875 422.0 374.5 L 446.0 443.5 L 429.5 444.0 L 423.5 428.0 L 405.5 428.0 Q 399.5 426.5 398.0 429.5 L 393.5 444.0 L 377.0 443.5 L 402.5 373.0 Z" /><path desc="l 3 p 7" fill="rgb(230,231,230)" stroke="rgb(230,231,230)" stroke-width="1" opacity="0.996078431372549" d="M 517.5 378.0 L 518.5 394.0 L 529.0 394.5 L 528.5 405.0 L 518.0 405.5 L 518.0 423.5 Q 516.7999877929688 430.79998779296875 520.5 433.0 L 526.5 434.0 L 528.5 433.0 L 529.0 443.5 Q 528.2999877929688 445.79998779296875 524.5 445.0 L 518.5 446.0 L 513.5 445.0 Q 507.1000061035156 444.3999938964844 505.0 439.5 Q 501.70001220703125 435.79998779296875 503.0 427.5 L 502.5 405.0 L 494.0 404.5 L 494.5 394.0 L 503.0 393.5 L 503.5 382.0 L 517.5 378.0 Z" /><path desc="l 15 p 17" fill="rgb(176,176,176)" stroke="rgb(176,176,176)" stroke-width="1" opacity="0.7607843137254902" d="M 502.5 383.0 L 503.0 393.5 L 502.0 393.5 L 502.5 383.0 Z" /><path desc="l 0 p 1" fill="rgb(0,0,0)" stroke="rgb(0,0,0)" stroke-width="1" opacity="0.0" d="M 411.5 387.0 L 414.5 399.0 L 420.0 415.5 L 402.5 416.0 L 403.0 414.5 L 411.5 387.0 Z" /><path desc="l 3 p 8" fill="rgb(230,231,230)" stroke="rgb(230,231,230)" stroke-width="1" opacity="0.996078431372549" d="M 472.5 392.0 L 486.0 394.5 L 485.5 406.0 Q 480.3999938964844 401.6000061035156 469.5 403.0 L 466.0 405.5 Q 465.0 410.0 467.5 411.0 L 477.5 415.0 Q 484.1000061035156 415.8999938964844 487.0 420.5 Q 490.5 424.5 489.0 433.5 Q 487.6000061035156 439.6000061035156 482.5 442.0 L 476.0 444.5 L 471.5 445.0 L 465.5 446.0 L 460.5 445.0 L 454.5 444.0 L 451.0 442.5 L 451.5 431.0 L 458.5 434.0 Q 462.29998779296875 436.70001220703125 470.5 435.0 L 475.0 431.5 Q 475.5 426.5 471.5 426.0 Q 460.70001220703125 424.29998779296875 454.0 418.5 Q 449.29998779296875 414.70001220703125 451.0 404.5 Q 452.3999938964844 398.3999938964844 457.5 396.0 L 467.5 393.0 L 472.5 392.0 Z" /><path desc="l 3 p 9" fill="rgb(230,231,230)" stroke="rgb(230,231,230)" stroke-width="1" opacity="0.996078431372549" d="M 603.5 392.0 Q 605.2999877929688 394.79998779296875 611.5 393.0 Q 621.7999877929688 395.79998779296875 627.0 403.5 Q 631.4000244140625 410.1000061035156 631.0 421.5 L 629.0 429.5 Q 626.4000244140625 436.8999938964844 620.5 441.0 Q 616.0 444.5 608.5 445.0 L 602.5 446.0 Q 601.2999877929688 443.79998779296875 596.5 445.0 Q 586.0 443.5 581.0 436.5 Q 574.0 429.0 576.0 412.5 Q 577.9000244140625 403.8999938964844 583.5 399.0 Q 587.7000122070312 394.70001220703125 595.0 393.5 L 603.5 392.0 Z" /><path desc="l 9 p 14" fill="rgb(49,49,49)" stroke="rgb(49,49,49)" stroke-width="1" opacity="0.21176470588235294" d="M 494.5 393.0 L 502.0 393.5 L 494.5 394.0 L 494.5 393.0 Z" /><path desc="l 9 p 15" fill="rgb(49,49,49)" stroke="rgb(49,49,49)" stroke-width="1" opacity="0.21176470588235294" d="M 518.5 393.0 L 525.5 393.0 Q 529.2999877929688 392.29998779296875 530.0 394.5 L 529.5 405.0 L 528.5 394.0 L 521.5 394.0 Q 517.5 394.79998779296875 518.5 393.0 Z" /><path desc="l 9 p 16" fill="rgb(49,49,49)" stroke="rgb(49,49,49)" stroke-width="1" opacity="0.21176470588235294" d="M 538.5 393.0 L 554.0 393.5 L 538.5 394.0 L 538.5 393.0 Z" /><path desc="l 3 p 10" fill="rgb(230,231,230)" stroke="rgb(230,231,230)" stroke-width="1" opacity="0.996078431372549" d="M 563.5 393.0 L 571.0 393.5 L 570.5 407.0 L 562.5 406.0 L 556.0 410.5 Q 552.7000122070312 414.20001220703125 554.0 422.5 L 553.5 444.0 L 538.0 443.5 L 538.5 394.0 L 554.0 394.5 L 554.5 403.0 L 559.5 395.0 L 563.5 393.0 Z" /><path desc="l 13 p 10" fill="rgb(87,87,87)" stroke="rgb(87,87,87)" stroke-width="1" opacity="0.3764705882352941" d="M 571.5 393.0 L 572.0 407.5 L 571.0 407.5 L 571.5 393.0 Z" /><path desc="l 14 p 12" fill="rgb(142,142,142)" stroke="rgb(142,142,142)" stroke-width="1" opacity="0.615686274509804" d="M 486.5 394.0 L 487.0 405.5 L 486.0 405.5 L 486.5 394.0 Z" /><path desc="l 14 p 13" fill="rgb(142,142,142)" stroke="rgb(142,142,142)" stroke-width="1" opacity="0.615686274509804" d="M 467.5 404.0 L 466.5 406.0 L 467.5 404.0 Z" /><path desc="l 15 p 18" fill="rgb(176,176,176)" stroke="rgb(176,176,176)" stroke-width="1" opacity="0.7607843137254902" d="M 502.5 405.0 L 503.0 430.5 L 502.0 430.5 L 502.5 405.0 Z" /><path desc="l 0 p 2" fill="rgb(0,0,0)" stroke="rgb(0,0,0)" stroke-width="1" opacity="0.0" d="M 598.5 405.0 Q 610.0 403.0 613.0 409.5 L 615.0 419.5 L 614.0 424.5 Q 613.2999877929688 430.8999938964844 608.5 433.0 L 602.5 434.0 L 598.5 433.0 L 594.0 429.5 Q 590.4000244140625 424.1000061035156 592.0 413.5 Q 593.4000244140625 407.3999938964844 598.5 405.0 Z" /><path desc="l 14 p 14" fill="rgb(142,142,142)" stroke="rgb(142,142,142)" stroke-width="1" opacity="0.615686274509804" d="M 610.5 406.0 L 611.5 408.0 L 610.5 406.0 Z" /><path desc="l 15 p 19" fill="rgb(176,176,176)" stroke="rgb(176,176,176)" stroke-width="1" opacity="0.7607843137254902" d="M 466.5 409.0 L 467.5 411.0 L 466.5 409.0 Z" /><path desc="l 15 p 20" fill="rgb(176,176,176)" stroke="rgb(176,176,176)" stroke-width="1" opacity="0.7607843137254902" d="M 591.5 417.0 L 592.0 420.5 L 591.0 420.5 L 591.5 417.0 Z" /><path desc="l 15 p 21" fill="rgb(176,176,176)" stroke="rgb(176,176,176)" stroke-width="1" opacity="0.7607843137254902" d="M 399.5 428.0 L 424.0 428.5 L 399.5 429.0 L 399.5 428.0 Z" /><path desc="l 15 p 22" fill="rgb(176,176,176)" stroke="rgb(176,176,176)" stroke-width="1" opacity="0.7607843137254902" d="M 611.5 430.0 L 610.5 432.0 L 611.5 430.0 Z" /><path desc="l 13 p 11" fill="rgb(87,87,87)" stroke="rgb(87,87,87)" stroke-width="1" opacity="0.3764705882352941" d="M 450.5 431.0 L 451.0 442.5 L 450.0 442.5 L 450.5 431.0 Z" /><path desc="l 9 p 17" fill="rgb(49,49,49)" stroke="rgb(49,49,49)" stroke-width="1" opacity="0.21176470588235294" d="M 529.5 432.0 L 530.0 443.5 L 529.0 443.5 L 529.5 432.0 Z" /><path desc="l 9 p 18" fill="rgb(49,49,49)" stroke="rgb(49,49,49)" stroke-width="1" opacity="0.21176470588235294" d="M 486.5 438.0 L 484.5 441.0 L 486.5 438.0 Z" /><path desc="l 9 p 19" fill="rgb(49,49,49)" stroke="rgb(49,49,49)" stroke-width="1" opacity="0.21176470588235294" d="M 506.5 441.0 L 507.5 443.0 L 506.5 441.0 Z" /><path desc="l 13 p 12" fill="rgb(87,87,87)" stroke="rgb(87,87,87)" stroke-width="1" opacity="0.3764705882352941" d="M 376.5 444.0 L 394.0 444.5 L 376.5 445.0 L 376.5 444.0 Z" /><path desc="l 13 p 13" fill="rgb(87,87,87)" stroke="rgb(87,87,87)" stroke-width="1" opacity="0.3764705882352941" d="M 429.5 444.0 L 446.0 444.5 L 429.5 445.0 L 429.5 444.0 Z" /><path desc="l 13 p 14" fill="rgb(87,87,87)" stroke="rgb(87,87,87)" stroke-width="1" opacity="0.3764705882352941" d="M 538.5 444.0 L 554.0 444.5 L 538.5 445.0 L 538.5 444.0 Z" /><path desc="l 15 p 23" fill="rgb(176,176,176)" stroke="rgb(176,176,176)" stroke-width="1" opacity="0.7607843137254902" d="M 462.5 445.0 L 465.0 445.5 L 462.5 446.0 L 462.5 445.0 Z" /><path desc="l 15 p 24" fill="rgb(176,176,176)" stroke="rgb(176,176,176)" stroke-width="1" opacity="0.7607843137254902" d="M 467.5 445.0 L 470.0 445.5 L 467.5 446.0 L 467.5 445.0 Z" /><path desc="l 15 p 25" fill="rgb(176,176,176)" stroke="rgb(176,176,176)" stroke-width="1" opacity="0.7607843137254902" d="M 520.5 445.0 L 523.0 445.5 L 520.5 446.0 L 520.5 445.0 Z" /><path desc="l 15 p 26" fill="rgb(176,176,176)" stroke="rgb(176,176,176)" stroke-width="1" opacity="0.7607843137254902" d="M 599.5 445.0 L 602.0 445.5 L 599.5 446.0 L 599.5 445.0 Z" /><path desc="l 15 p 27" fill="rgb(176,176,176)" stroke="rgb(176,176,176)" stroke-width="1" opacity="0.7607843137254902" d="M 604.5 445.0 L 607.0 445.5 L 604.5 446.0 L 604.5 445.0 Z" /><path desc="l 9 p 20" fill="rgb(49,49,49)" stroke="rgb(49,49,49)" stroke-width="1" opacity="0.21176470588235294" d="M 501.5 451.0 L 504.0 451.5 L 501.5 452.0 L 501.5 451.0 Z" /><path desc="l 3 p 11" fill="rgb(230,231,230)" stroke="rgb(230,231,230)" stroke-width="1" opacity="0.996078431372549" d="M 490.5 452.0 L 508.5 452.0 L 517.5 453.0 L 527.5 455.0 L 540.5 460.0 Q 553.2000122070312 466.29998779296875 562.0 476.5 Q 570.0999755859375 484.8999938964844 574.5 497.0 L 578.5 508.0 L 581.0 520.5 L 582.0 529.5 L 582.0 547.5 L 578.0 566.5 Q 570.5 592.5 551.5 607.0 Q 542.9000244140625 614.4000244140625 530.5 618.0 L 521.5 621.0 L 513.0 622.5 L 487.5 623.0 L 472.5 619.0 Q 452.8999938964844 613.0999755859375 441.0 599.5 Q 431.70001220703125 589.7999877929688 426.0 576.5 L 421.0 557.5 L 420.0 546.5 L 420.0 525.5 L 423.5 510.0 Q 430.70001220703125 483.70001220703125 449.5 469.0 Q 460.70001220703125 459.20001220703125 477.5 455.0 L 490.5 452.0 Z" /><path desc="l 15 p 28" fill="rgb(176,176,176)" stroke="rgb(176,176,176)" stroke-width="1" opacity="0.7607843137254902" d="M 175.5 454.0 L 204.5 454.0 L 211.5 454.0 Q 215.3000030517578 453.29998779296875 216.0 455.5 L 214.5 455.0 L 185.5 455.0 L 178.5 455.0 Q 174.5 455.79998779296875 175.5 454.0 Z" /><path desc="l 15 p 29" fill="rgb(176,176,176)" stroke="rgb(176,176,176)" stroke-width="1" opacity="0.7607843137254902" d="M 275.5 454.0 L 315.0 454.5 L 275.5 455.0 L 275.5 454.0 Z" /><path desc="l 15 p 30" fill="rgb(176,176,176)" stroke="rgb(176,176,176)" stroke-width="1" opacity="0.7607843137254902" d="M 371.5 454.0 L 409.0 454.5 L 371.5 455.0 L 371.5 454.0 Z" /><path desc="l 15 p 31" fill="rgb(176,176,176)" stroke="rgb(176,176,176)" stroke-width="1" opacity="0.7607843137254902" d="M 593.5 454.0 L 634.0 454.5 L 593.5 455.0 L 593.5 454.0 Z" /><path desc="l 15 p 32" fill="rgb(176,176,176)" stroke="rgb(176,176,176)" stroke-width="1" opacity="0.7607843137254902" d="M 694.5 454.0 L 734.0 454.5 L 694.5 455.0 L 694.5 454.0 Z" /><path desc="l 15 p 33" fill="rgb(176,176,176)" stroke="rgb(176,176,176)" stroke-width="1" opacity="0.7607843137254902" d="M 790.5 454.0 L 827.0 454.5 L 790.5 455.0 L 790.5 454.0 Z" /><path desc="l 15 p 34" fill="rgb(176,176,176)" stroke="rgb(176,176,176)" stroke-width="1" opacity="0.7607843137254902" d="M 849.5 454.0 L 887.0 454.5 L 849.5 455.0 L 849.5 454.0 Z" /><path desc="l 3 p 12" fill="rgb(230,231,230)" stroke="rgb(230,231,230)" stroke-width="1" opacity="0.996078431372549" d="M 175.5 455.0 L 204.5 455.0 L 211.5 455.0 Q 215.3000030517578 454.29998779296875 216.0 456.5 L 231.0 528.5 L 238.0 562.5 L 241.5 584.0 L 243.0 574.5 L 245.0 565.5 L 251.5 542.0 L 275.5 455.0 L 304.5 455.0 L 311.5 455.0 Q 315.29998779296875 454.29998779296875 316.0 456.5 L 335.5 538.0 L 341.5 563.0 L 345.5 584.0 L 347.0 572.5 L 350.0 557.5 L 356.0 527.5 L 367.5 472.0 L 369.5 462.0 L 371.5 455.0 L 408.0 455.5 L 364.5 620.0 L 323.0 619.5 L 302.5 539.0 L 294.0 505.5 Q 295.0 498.5 292.5 495.0 L 291.0 506.5 L 288.0 519.5 L 283.0 538.5 L 268.0 594.5 L 263.5 612.0 L 260.5 620.0 L 218.0 619.5 L 187.0 501.5 L 178.0 467.5 L 175.5 455.0 Z" /><path desc="l 3 p 13" fill="rgb(230,231,230)" stroke="rgb(230,231,230)" stroke-width="1" opacity="0.996078431372549" d="M 593.5 455.0 L 634.0 455.5 L 651.0 536.5 L 656.5 562.0 L 659.5 584.0 L 664.0 563.5 L 671.0 538.5 L 693.5 455.0 L 734.0 455.5 L 755.0 542.5 L 760.0 562.5 L 762.5 575.0 L 763.5 584.0 L 767.0 561.5 L 773.5 533.0 L 789.5 455.0 L 827.0 455.5 L 783.5 620.0 L 742.0 619.5 L 720.5 537.0 L 714.5 514.0 L 712.5 504.0 L 711.5 495.0 L 708.0 515.5 L 705.5 523.0 L 703.0 534.5 L 679.5 620.0 L 648.5 620.0 L 640.5 620.0 Q 636.7999877929688 620.7999877929688 636.0 618.5 L 593.5 455.0 Z" /><path desc="l 3 p 14" fill="rgb(230,231,230)" stroke="rgb(230,231,230)" stroke-width="1" opacity="0.996078431372549" d="M 849.5 455.0 L 887.0 455.5 L 882.5 569.0 L 853.0 568.5 L 849.5 455.0 Z" /><path desc="l 13 p 15" fill="rgb(87,87,87)" stroke="rgb(87,87,87)" stroke-width="1" opacity="0.3764705882352941" d="M 886.5 475.0 L 887.0 477.5 L 886.0 477.5 L 886.5 475.0 Z" /><path desc="l 9 p 21" fill="rgb(49,49,49)" stroke="rgb(49,49,49)" stroke-width="1" opacity="0.21176470588235294" d="M 886.5 478.0 L 887.0 480.5 L 886.0 480.5 L 886.5 478.0 Z" /><path desc="l 0 p 3" fill="rgb(0,0,0)" stroke="rgb(0,0,0)" stroke-width="1" opacity="0.0" d="M 494.5 484.0 L 504.5 484.0 L 510.5 485.0 Q 518.5999755859375 485.8999938964844 523.5 490.0 L 533.0 499.5 Q 540.2000122070312 509.29998779296875 542.0 524.5 L 543.0 544.5 L 541.0 555.5 Q 537.5999755859375 574.5999755859375 524.5 584.0 Q 514.7000122070312 592.7000122070312 494.5 591.0 Q 478.1000061035156 587.9000244140625 470.0 576.5 L 463.0 563.5 L 460.0 550.5 Q 457.29998779296875 542.2000122070312 459.0 529.5 L 461.0 519.5 Q 464.70001220703125 502.70001220703125 475.5 493.0 Q 482.6000061035156 486.1000061035156 494.5 484.0 Z" /><path desc="l 9 p 22" fill="rgb(49,49,49)" stroke="rgb(49,49,49)" stroke-width="1" opacity="0.21176470588235294" d="M 527.5 493.0 L 529.5 496.0 L 527.5 493.0 Z" /><path desc="l 14 p 15" fill="rgb(142,142,142)" stroke="rgb(142,142,142)" stroke-width="1" opacity="0.615686274509804" d="M 885.5 498.0 L 886.0 500.5 L 885.0 500.5 L 885.5 498.0 Z" /><path desc="l 9 p 23" fill="rgb(49,49,49)" stroke="rgb(49,49,49)" stroke-width="1" opacity="0.21176470588235294" d="M 850.5 499.0 L 851.0 501.5 L 850.0 501.5 L 850.5 499.0 Z" /><path desc="l 9 p 24" fill="rgb(49,49,49)" stroke="rgb(49,49,49)" stroke-width="1" opacity="0.21176470588235294" d="M 885.5 503.0 L 886.0 505.5 L 885.0 505.5 L 885.5 503.0 Z" /><path desc="l 15 p 35" fill="rgb(176,176,176)" stroke="rgb(176,176,176)" stroke-width="1" opacity="0.7607843137254902" d="M 884.5 521.0 L 885.0 523.5 L 884.0 523.5 L 884.5 521.0 Z" /><path desc="l 14 p 16" fill="rgb(142,142,142)" stroke="rgb(142,142,142)" stroke-width="1" opacity="0.615686274509804" d="M 884.5 524.0 L 885.0 526.5 L 884.0 526.5 L 884.5 524.0 Z" /><path desc="l 9 p 25" fill="rgb(49,49,49)" stroke="rgb(49,49,49)" stroke-width="1" opacity="0.21176470588235294" d="M 851.5 526.0 L 852.0 529.5 L 851.0 529.5 L 851.5 526.0 Z" /><path desc="l 14 p 17" fill="rgb(142,142,142)" stroke="rgb(142,142,142)" stroke-width="1" opacity="0.615686274509804" d="M 419.5 536.0 L 420.0 538.5 L 419.0 538.5 L 419.5 536.0 Z" /><path desc="l 14 p 18" fill="rgb(142,142,142)" stroke="rgb(142,142,142)" stroke-width="1" opacity="0.615686274509804" d="M 419.5 540.0 L 420.0 542.5 L 419.0 542.5 L 419.5 540.0 Z" /><path desc="l 15 p 36" fill="rgb(176,176,176)" stroke="rgb(176,176,176)" stroke-width="1" opacity="0.7607843137254902" d="M 883.5 546.0 L 884.0 549.5 L 883.0 549.5 L 883.5 546.0 Z" /><path desc="l 9 p 26" fill="rgb(49,49,49)" stroke="rgb(49,49,49)" stroke-width="1" opacity="0.21176470588235294" d="M 852.5 553.0 L 853.0 556.5 L 852.0 556.5 L 852.5 553.0 Z" /><path desc="l 13 p 16" fill="rgb(87,87,87)" stroke="rgb(87,87,87)" stroke-width="1" opacity="0.3764705882352941" d="M 529.5 579.0 L 528.5 581.0 L 529.5 579.0 Z" /><path desc="l 9 p 27" fill="rgb(49,49,49)" stroke="rgb(49,49,49)" stroke-width="1" opacity="0.21176470588235294" d="M 659.5 581.0 L 660.0 583.5 L 659.0 583.5 L 659.5 581.0 Z" /><path desc="l 3 p 15" fill="rgb(230,231,230)" stroke="rgb(230,231,230)" stroke-width="1" opacity="0.996078431372549" d="M 864.5 585.0 L 874.5 586.0 Q 883.4000244140625 587.5999755859375 887.0 594.5 Q 890.7999877929688 599.2000122070312 889.0 609.5 L 882.5 619.0 L 875.5 622.0 Q 871.7000122070312 624.7000122070312 863.5 623.0 Q 854.4000244140625 621.0999755859375 850.0 614.5 Q 846.0 610.0 847.0 600.5 Q 848.7999877929688 592.7999877929688 854.5 589.0 L 864.5 585.0 Z" /><path desc="l 15 p 37" fill="rgb(176,176,176)" stroke="rgb(176,176,176)" stroke-width="1" opacity="0.7607843137254902" d="M 883.5 590.0 L 884.5 592.0 L 883.5 590.0 Z" /><path desc="l 15 p 38" fill="rgb(176,176,176)" stroke="rgb(176,176,176)" stroke-width="1" opacity="0.7607843137254902" d="M 439.5 597.0 L 440.5 599.0 L 439.5 597.0 Z" /><path desc="l 14 p 19" fill="rgb(142,142,142)" stroke="rgb(142,142,142)" stroke-width="1" opacity="0.615686274509804" d="M 559.5 599.0 L 556.5 603.0 L 559.5 599.0 Z" /><path desc="l 15 p 39" fill="rgb(176,176,176)" stroke="rgb(176,176,176)" stroke-width="1" opacity="0.7607843137254902" d="M 261.5 619.0 L 260.5 621.0 L 218.0 620.5 L 249.5 620.0 L 257.5 620.0 L 261.5 619.0 Z" /><path desc="l 15 p 40" fill="rgb(176,176,176)" stroke="rgb(176,176,176)" stroke-width="1" opacity="0.7607843137254902" d="M 636.5 619.0 L 639.5 620.0 L 648.5 620.0 L 680.0 620.5 L 637.5 621.0 L 636.5 619.0 Z" /><path desc="l 15 p 41" fill="rgb(176,176,176)" stroke="rgb(176,176,176)" stroke-width="1" opacity="0.7607843137254902" d="M 323.5 620.0 L 365.0 620.5 L 323.5 621.0 L 323.5 620.0 Z" /><path desc="l 15 p 42" fill="rgb(176,176,176)" stroke="rgb(176,176,176)" stroke-width="1" opacity="0.7607843137254902" d="M 742.5 620.0 L 783.0 620.5 L 742.5 621.0 L 742.5 620.0 Z" /><path desc="l 13 p 17" fill="rgb(87,87,87)" stroke="rgb(87,87,87)" stroke-width="1" opacity="0.3764705882352941" d="M 496.5 623.0 L 499.0 623.5 L 496.5 624.0 L 496.5 623.0 Z" /><path desc="l 14 p 20" fill="rgb(142,142,142)" stroke="rgb(142,142,142)" stroke-width="1" opacity="0.615686274509804" d="M 499.5 623.0 L 502.0 623.5 L 499.5 624.0 L 499.5 623.0 Z" /><path desc="l 13 p 18" fill="rgb(87,87,87)" stroke="rgb(87,87,87)" stroke-width="1" opacity="0.3764705882352941" d="M 502.5 623.0 L 505.0 623.5 L 502.5 624.0 L 502.5 623.0 Z" /><path desc="l 3 p 16" fill="rgb(230,231,230)" stroke="rgb(230,231,230)" stroke-width="1" opacity="0.996078431372549" d="M 436.5 640.0 L 444.5 642.0 L 457.0 647.5 L 469.5 651.0 L 485.5 654.0 L 494.5 655.0 L 511.5 655.0 L 513.5 654.0 L 515.5 655.0 L 529.5 652.0 L 538.5 650.0 L 549.5 647.0 L 558.0 643.5 Q 560.4000244140625 640.9000244140625 566.5 642.0 L 579.0 650.5 Q 579.5 654.5 576.5 655.0 L 567.5 659.0 L 543.5 668.0 L 533.5 670.0 L 519.5 672.0 L 514.0 672.5 L 494.5 673.0 Q 493.0 670.5 487.5 672.0 L 481.0 671.5 L 473.5 670.0 Q 443.5 665.5 423.0 651.5 L 423.5 648.0 L 427.0 646.5 L 436.5 640.0 Z" /><path desc="l 9 p 28" fill="rgb(49,49,49)" stroke="rgb(49,49,49)" stroke-width="1" opacity="0.21176470588235294" d="M 494.5 654.0 L 498.0 654.5 L 494.5 655.0 L 494.5 654.0 Z" /><path desc="l 15 p 43" fill="rgb(176,176,176)" stroke="rgb(176,176,176)" stroke-width="1" opacity="0.7607843137254902" d="M 491.5 672.0 L 494.0 672.5 L 491.5 673.0 L 491.5 672.0 Z" /><path desc="l 3 p 17" fill="rgb(230,231,230)" stroke="rgb(230,231,230)" stroke-width="1" opacity="0.996078431372549" d="M 382.5 679.0 L 386.5 680.0 L 392.0 683.5 L 403.5 690.0 L 416.0 696.5 L 426.5 701.0 L 433.5 703.0 L 446.0 707.5 L 455.5 710.0 L 464.5 712.0 L 479.5 714.0 L 495.5 715.0 L 521.5 715.0 Q 522.7999877929688 712.7999877929688 527.5 714.0 L 535.5 713.0 L 549.5 710.0 L 570.5 704.0 Q 582.4000244140625 701.4000244140625 591.0 695.5 Q 602.5999755859375 691.5999755859375 611.0 684.5 L 615.5 682.0 L 619.5 681.0 L 627.0 688.5 Q 630.5 689.0 630.0 693.5 Q 614.2999877929688 706.2999877929688 593.5 714.0 L 574.5 722.0 L 541.5 730.0 L 520.0 732.5 L 489.5 733.0 Q 488.29998779296875 730.7999877929688 483.5 732.0 L 459.5 729.0 L 444.5 725.0 Q 433.20001220703125 723.7999877929688 425.5 719.0 Q 394.29998779296875 709.2000122070312 372.0 690.5 L 382.5 679.0 Z" /><path desc="l 15 p 44" fill="rgb(176,176,176)" stroke="rgb(176,176,176)" stroke-width="1" opacity="0.7607843137254902" d="M 379.5 681.0 L 378.5 683.0 L 379.5 681.0 Z" /><path desc="l 15 p 45" fill="rgb(176,176,176)" stroke="rgb(176,176,176)" stroke-width="1" opacity="0.7607843137254902" d="M 620.5 681.0 L 621.5 683.0 L 620.5 681.0 Z" /><path desc="l 14 p 21" fill="rgb(142,142,142)" stroke="rgb(142,142,142)" stroke-width="1" opacity="0.615686274509804" d="M 375.5 685.0 L 374.5 687.0 L 375.5 685.0 Z" /><path desc="l 14 p 22" fill="rgb(142,142,142)" stroke="rgb(142,142,142)" stroke-width="1" opacity="0.615686274509804" d="M 624.5 685.0 L 625.5 687.0 L 624.5 685.0 Z" /><path desc="l 15 p 46" fill="rgb(176,176,176)" stroke="rgb(176,176,176)" stroke-width="1" opacity="0.7607843137254902" d="M 627.5 688.0 L 628.5 690.0 L 627.5 688.0 Z" /><path desc="l 13 p 19" fill="rgb(87,87,87)" stroke="rgb(87,87,87)" stroke-width="1" opacity="0.3764705882352941" d="M 372.5 691.0 L 373.5 693.0 L 372.5 691.0 Z" /><path desc="l 9 p 29" fill="rgb(49,49,49)" stroke="rgb(49,49,49)" stroke-width="1" opacity="0.21176470588235294" d="M 382.5 698.0 L 383.5 700.0 L 382.5 698.0 Z" /><path desc="l 3 p 18" fill="rgb(230,231,230)" stroke="rgb(230,231,230)" stroke-width="1" opacity="0.996078431372549" d="M 338.5 722.0 L 355.0 733.5 L 392.5 755.0 L 405.5 760.0 L 436.0 770.5 L 456.5 775.0 L 473.0 777.5 L 481.0 778.5 L 492.5 779.0 L 526.5 779.0 Q 528.2999877929688 776.2999877929688 534.5 778.0 L 556.5 774.0 L 568.5 771.0 L 593.5 763.0 L 614.0 754.5 L 631.0 745.5 L 655.5 730.0 Q 658.4000244140625 725.4000244140625 665.5 725.0 L 673.5 733.0 Q 676.7999877929688 733.7999877929688 676.0 738.5 Q 647.5 764.0 607.5 778.0 L 596.5 783.0 L 583.5 787.0 L 574.0 789.5 L 558.5 793.0 L 540.5 796.0 L 525.0 797.5 L 483.5 798.0 Q 482.29998779296875 795.7999877929688 477.5 797.0 L 460.5 795.0 L 440.5 791.0 L 419.5 786.0 L 408.0 781.5 L 379.5 770.0 Q 349.79998779296875 755.7000122070312 326.0 735.5 L 328.0 731.5 L 335.5 724.0 L 338.5 722.0 Z" /><path desc="l 14 p 23" fill="rgb(142,142,142)" stroke="rgb(142,142,142)" stroke-width="1" opacity="0.615686274509804" d="M 675.5 739.0 L 674.5 741.0 L 675.5 739.0 Z" /><path desc="l 15 p 47" fill="rgb(176,176,176)" stroke="rgb(176,176,176)" stroke-width="1" opacity="0.7607843137254902" d="M 667.5 745.0 L 666.5 747.0 L 667.5 745.0 Z" /><path desc="l 9 p 30" fill="rgb(49,49,49)" stroke="rgb(49,49,49)" stroke-width="1" opacity="0.21176470588235294" d="M 347.5 751.0 L 348.5 753.0 L 347.5 751.0 Z" /><path desc="l 3 p 19" fill="rgb(230,231,230)" stroke="rgb(230,231,230)" stroke-width="1" opacity="0.996078431372549" d="M 291.5 766.0 L 295.5 767.0 L 299.5 770.0 L 316.5 782.0 Q 338.20001220703125 798.2999877929688 365.5 809.0 L 383.5 817.0 L 401.5 824.0 L 409.5 826.0 L 423.5 830.0 L 432.5 832.0 L 439.5 834.0 L 461.5 837.0 L 486.0 839.5 L 517.5 840.0 Q 519.2999877929688 837.2999877929688 525.5 839.0 L 550.5 837.0 L 573.0 832.5 L 580.5 831.0 L 593.5 827.0 L 603.5 825.0 L 621.0 818.5 L 649.0 806.5 L 670.5 795.0 L 690.0 782.5 L 704.5 772.0 L 707.5 770.0 L 711.5 769.0 L 712.5 771.0 L 715.0 772.5 L 715.5 774.0 L 719.0 776.5 L 719.5 778.0 L 721.0 778.5 Q 721.7999877929688 783.2999877929688 718.5 784.0 Q 683.5999755859375 812.0999755859375 638.5 830.0 L 614.0 839.5 L 586.5 847.0 L 566.0 851.5 L 543.5 855.0 L 506.5 857.0 L 503.5 856.0 L 495.5 856.0 L 467.5 855.0 L 446.5 852.0 L 428.5 849.0 L 394.5 839.0 L 377.5 833.0 L 363.5 827.0 Q 316.8999938964844 808.0999755859375 282.0 777.5 L 283.5 774.0 L 286.0 772.5 L 286.5 771.0 L 288.0 770.5 L 288.5 769.0 L 291.0 767.5 L 291.5 766.0 Z" /><path desc="l 15 p 48" fill="rgb(176,176,176)" stroke="rgb(176,176,176)" stroke-width="1" opacity="0.7607843137254902" d="M 285.5 772.0 L 284.5 774.0 L 285.5 772.0 Z" /><path desc="l 9 p 31" fill="rgb(49,49,49)" stroke="rgb(49,49,49)" stroke-width="1" opacity="0.21176470588235294" d="M 483.5 778.0 L 486.0 778.5 L 483.5 779.0 L 483.5 778.0 Z" /><path desc="l 9 p 32" fill="rgb(49,49,49)" stroke="rgb(49,49,49)" stroke-width="1" opacity="0.21176470588235294" d="M 522.5 778.0 L 525.0 778.5 L 522.5 779.0 L 522.5 778.0 Z" /><path desc="l 13 p 20" fill="rgb(87,87,87)" stroke="rgb(87,87,87)" stroke-width="1" opacity="0.3764705882352941" d="M 706.5 792.0 L 705.5 794.0 L 706.5 792.0 Z" /><path desc="l 3 p 20" fill="rgb(230,231,230)" stroke="rgb(230,231,230)" stroke-width="1" opacity="0.996078431372549" d="M 247.5 805.0 L 251.5 806.0 L 255.0 808.5 L 274.0 823.5 L 308.5 846.0 L 322.0 853.5 L 339.5 862.0 L 352.5 868.0 L 375.5 877.0 L 411.5 888.0 L 435.5 893.0 L 453.5 896.0 L 483.0 898.5 L 525.5 899.0 L 530.5 898.0 L 532.5 898.0 L 546.5 897.0 L 573.5 893.0 L 591.0 889.5 L 621.5 881.0 L 641.5 874.0 L 661.5 866.0 L 687.5 853.0 Q 715.0999755859375 839.5999755859375 737.5 821.0 L 749.5 812.0 Q 750.5 807.0 757.5 808.0 L 768.0 817.5 L 767.0 821.5 L 763.5 825.0 L 728.5 851.0 Q 700.2000122070312 870.2000122070312 666.5 884.0 Q 643.5 895.0 616.5 902.0 L 593.5 908.0 L 571.5 912.0 L 546.5 915.0 L 529.0 916.5 L 480.5 917.0 L 477.5 916.0 L 469.5 916.0 L 447.5 913.0 L 439.5 912.0 L 431.0 910.5 L 416.5 908.0 L 393.5 902.0 L 385.0 899.5 L 378.5 897.0 L 367.0 893.5 L 346.5 886.0 L 310.5 868.0 Q 269.79998779296875 847.2000122070312 237.0 818.5 L 235.0 815.5 L 238.5 811.0 L 247.5 805.0 Z" /><path desc="l 15 p 49" fill="rgb(176,176,176)" stroke="rgb(176,176,176)" stroke-width="1" opacity="0.7607843137254902" d="M 258.5 811.0 L 259.5 813.0 L 258.5 811.0 Z" /><path desc="l 9 p 33" fill="rgb(49,49,49)" stroke="rgb(49,49,49)" stroke-width="1" opacity="0.21176470588235294" d="M 267.5 818.0 L 268.5 820.0 L 267.5 818.0 Z" /><path desc="l 14 p 24" fill="rgb(142,142,142)" stroke="rgb(142,142,142)" stroke-width="1" opacity="0.615686274509804" d="M 762.5 825.0 L 761.5 827.0 L 762.5 825.0 Z" /><path desc="l 14 p 25" fill="rgb(142,142,142)" stroke="rgb(142,142,142)" stroke-width="1" opacity="0.615686274509804" d="M 253.5 831.0 L 254.5 833.0 L 253.5 831.0 Z" /><path desc="l 9 p 34" fill="rgb(49,49,49)" stroke="rgb(49,49,49)" stroke-width="1" opacity="0.21176470588235294" d="M 752.5 833.0 L 751.5 835.0 L 752.5 833.0 Z" /><path desc="l 15 p 50" fill="rgb(176,176,176)" stroke="rgb(176,176,176)" stroke-width="1" opacity="0.7607843137254902" d="M 549.5 836.0 L 552.0 836.5 L 549.5 837.0 L 549.5 836.0 Z" /><path desc="l 9 p 35" fill="rgb(49,49,49)" stroke="rgb(49,49,49)" stroke-width="1" opacity="0.21176470588235294" d="M 489.5 839.0 L 494.0 839.5 L 489.5 840.0 L 489.5 839.0 Z" /><path desc="l 14 p 26" fill="rgb(142,142,142)" stroke="rgb(142,142,142)" stroke-width="1" opacity="0.615686274509804" d="M 268.5 842.0 L 269.5 844.0 L 268.5 842.0 Z" /><path desc="l 3 p 21" fill="rgb(230,231,230)" stroke="rgb(230,231,230)" stroke-width="1" opacity="0.996078431372549" d="M 200.5 844.0 Q 205.0 843.0 206.0 845.5 L 210.0 848.5 L 224.5 861.0 Q 256.20001220703125 886.7999877929688 294.0 906.5 L 326.0 921.5 L 354.5 933.0 L 382.0 941.5 L 413.0 949.5 L 452.5 956.0 L 481.0 958.5 L 529.5 959.0 Q 531.2999877929688 956.2999877929688 537.5 958.0 L 549.5 957.0 L 571.5 954.0 L 597.5 950.0 L 636.5 940.0 L 656.5 933.0 Q 684.4000244140625 923.4000244140625 708.5 910.0 L 726.5 901.0 L 745.5 889.0 L 779.5 865.0 L 794.0 853.5 Q 796.4000244140625 848.4000244140625 802.5 847.0 L 818.0 856.5 L 816.5 861.0 L 811.0 864.5 L 809.5 867.0 L 767.5 899.0 L 737.0 917.5 Q 707.4000244140625 935.9000244140625 672.0 948.5 L 656.5 954.0 L 622.0 964.5 L 600.5 969.0 L 588.5 972.0 L 586.5 972.0 L 549.5 977.0 L 523.5 978.0 L 480.5 978.0 Q 479.0 975.5 473.5 977.0 L 456.5 976.0 L 436.0 973.5 L 426.5 972.0 L 412.5 969.0 L 405.5 968.0 L 401.5 967.0 L 397.5 966.0 L 390.5 965.0 L 361.5 956.0 L 350.0 952.5 L 323.5 942.0 L 299.5 932.0 Q 243.8000030517578 904.7999877929688 199.0 866.5 L 197.5 864.0 L 188.0 856.5 Q 187.3000030517578 852.7999877929688 189.5 852.0 L 200.5 844.0 Z" /><path desc="l 9 p 36" fill="rgb(49,49,49)" stroke="rgb(49,49,49)" stroke-width="1" opacity="0.21176470588235294" d="M 734.5 846.0 L 733.5 848.0 L 734.5 846.0 Z" /><path desc="l 9 p 37" fill="rgb(49,49,49)" stroke="rgb(49,49,49)" stroke-width="1" opacity="0.21176470588235294" d="M 482.5 856.0 L 490.0 856.5 L 482.5 857.0 L 482.5 856.0 Z" /><path desc="l 13 p 21" fill="rgb(87,87,87)" stroke="rgb(87,87,87)" stroke-width="1" opacity="0.3764705882352941" d="M 490.5 856.0 L 498.0 856.5 L 490.5 857.0 L 490.5 856.0 Z" /><path desc="l 14 p 27" fill="rgb(142,142,142)" stroke="rgb(142,142,142)" stroke-width="1" opacity="0.615686274509804" d="M 498.5 856.0 L 501.0 856.5 L 498.5 857.0 L 498.5 856.0 Z" /><path desc="l 15 p 51" fill="rgb(176,176,176)" stroke="rgb(176,176,176)" stroke-width="1" opacity="0.7607843137254902" d="M 501.5 856.0 L 506.0 856.5 L 501.5 857.0 L 501.5 856.0 Z" /><path desc="l 15 p 52" fill="rgb(176,176,176)" stroke="rgb(176,176,176)" stroke-width="1" opacity="0.7607843137254902" d="M 515.5 856.0 L 520.0 856.5 L 515.5 857.0 L 515.5 856.0 Z" /><path desc="l 9 p 38" fill="rgb(49,49,49)" stroke="rgb(49,49,49)" stroke-width="1" opacity="0.21176470588235294" d="M 523.5 856.0 L 526.0 856.5 L 523.5 857.0 L 523.5 856.0 Z" /><path desc="l 15 p 53" fill="rgb(176,176,176)" stroke="rgb(176,176,176)" stroke-width="1" opacity="0.7607843137254902" d="M 189.5 857.0 L 191.5 860.0 L 189.5 857.0 Z" /><path desc="l 13 p 22" fill="rgb(87,87,87)" stroke="rgb(87,87,87)" stroke-width="1" opacity="0.3764705882352941" d="M 676.5 858.0 L 675.5 860.0 L 676.5 858.0 Z" /><path desc="l 9 p 39" fill="rgb(49,49,49)" stroke="rgb(49,49,49)" stroke-width="1" opacity="0.21176470588235294" d="M 783.5 861.0 L 782.5 863.0 L 783.5 861.0 Z" /><path desc="l 15 p 54" fill="rgb(176,176,176)" stroke="rgb(176,176,176)" stroke-width="1" opacity="0.7607843137254902" d="M 815.5 861.0 L 814.5 863.0 L 815.5 861.0 Z" /><path desc="l 15 p 55" fill="rgb(176,176,176)" stroke="rgb(176,176,176)" stroke-width="1" opacity="0.7607843137254902" d="M 197.5 864.0 L 198.5 866.0 L 197.5 864.0 Z" /><path desc="l 9 p 40" fill="rgb(49,49,49)" stroke="rgb(49,49,49)" stroke-width="1" opacity="0.21176470588235294" d="M 205.5 871.0 L 206.5 873.0 L 205.5 871.0 Z" /><path desc="l 9 p 41" fill="rgb(49,49,49)" stroke="rgb(49,49,49)" stroke-width="1" opacity="0.21176470588235294" d="M 484.5 898.0 L 487.0 898.5 L 484.5 899.0 L 484.5 898.0 Z" /><path desc="l 15 p 56" fill="rgb(176,176,176)" stroke="rgb(176,176,176)" stroke-width="1" opacity="0.7607843137254902" d="M 457.5 914.0 L 460.0 914.5 L 457.5 915.0 L 457.5 914.0 Z" /><path desc="l 9 p 42" fill="rgb(49,49,49)" stroke="rgb(49,49,49)" stroke-width="1" opacity="0.21176470588235294" d="M 558.5 955.0 L 561.0 955.5 L 558.5 956.0 L 558.5 955.0 Z" /><path desc="l 9 p 43" fill="rgb(49,49,49)" stroke="rgb(49,49,49)" stroke-width="1" opacity="0.21176470588235294" d="M 458.5 956.0 L 461.0 956.5 L 458.5 957.0 L 458.5 956.0 Z" /><path desc="l 13 p 23" fill="rgb(87,87,87)" stroke="rgb(87,87,87)" stroke-width="1" opacity="0.3764705882352941" d="M 520.5 958.0 L 524.0 958.5 L 520.5 959.0 L 520.5 958.0 Z" /><path desc="l 14 p 28" fill="rgb(142,142,142)" stroke="rgb(142,142,142)" stroke-width="1" opacity="0.615686274509804" d="M 524.5 958.0 L 527.0 958.5 L 524.5 959.0 L 524.5 958.0 Z" /><path desc="l 15 p 57" fill="rgb(176,176,176)" stroke="rgb(176,176,176)" stroke-width="1" opacity="0.7607843137254902" d="M 527.5 958.0 L 530.0 958.5 L 527.5 959.0 L 527.5 958.0 Z" /><path desc="l 15 p 58" fill="rgb(176,176,176)" stroke="rgb(176,176,176)" stroke-width="1" opacity="0.7607843137254902" d="M 460.5 976.0 L 463.0 976.5 L 460.5 977.0 L 460.5 976.0 Z" /><path desc="l 14 p 29" fill="rgb(142,142,142)" stroke="rgb(142,142,142)" stroke-width="1" opacity="0.615686274509804" d="M 473.5 977.0 L 476.0 977.5 L 473.5 978.0 L 473.5 977.0 Z" /><path desc="l 15 p 59" fill="rgb(176,176,176)" stroke="rgb(176,176,176)" stroke-width="1" opacity="0.7607843137254902" d="M 476.5 977.0 L 480.0 977.5 L 476.5 978.0 L 476.5 977.0 Z" /><path desc="l 9 p 44" fill="rgb(49,49,49)" stroke="rgb(49,49,49)" stroke-width="1" opacity="0.21176470588235294" d="M 490.5 978.0 L 495.0 978.5 L 490.5 979.0 L 490.5 978.0 Z" /><path desc="l 13 p 24" fill="rgb(87,87,87)" stroke="rgb(87,87,87)" stroke-width="1" opacity="0.3764705882352941" d="M 495.5 978.0 L 499.0 978.5 L 495.5 979.0 L 495.5 978.0 Z" /><path desc="l 14 p 30" fill="rgb(142,142,142)" stroke="rgb(142,142,142)" stroke-width="1" opacity="0.615686274509804" d="M 499.5 978.0 L 517.0 978.5 L 499.5 979.0 L 499.5 978.0 Z" /><path desc="l 13 p 25" fill="rgb(87,87,87)" stroke="rgb(87,87,87)" stroke-width="1" opacity="0.3764705882352941" d="M 517.5 978.0 L 521.0 978.5 L 517.5 979.0 L 517.5 978.0 Z" /><path desc="l 9 p 45" fill="rgb(49,49,49)" stroke="rgb(49,49,49)" stroke-width="1" opacity="0.21176470588235294" d="M 521.5 978.0 L 524.0 978.5 L 521.5 979.0 L 521.5 978.0 Z" /></svg>